<svg fill="none" height="1034" viewBox="0 0 1095 1034" width="1095" xmlns="http://www.w3.org/2000/svg" xmlns:xlink="http://www.w3.org/1999/xlink"><filter id="a" color-interpolation-filters="sRGB" filterUnits="userSpaceOnUse" height="1034" width="1095" x="0" y="0"><feFlood flood-opacity="0" result="BackgroundImageFix"/><feBlend in="SourceGraphic" in2="BackgroundImageFix" mode="normal" result="shape"/><feGaussianBlur result="effect1_foregroundBlur_343_22636" stdDeviation="92"/></filter><linearGradient id="b" gradientUnits="userSpaceOnUse" x1="435.954" x2="527.835" y1="805.255" y2="284.174"><stop offset="0" stop-color="#ff15da"/><stop offset=".223958" stop-color="#00ff94"/><stop offset=".53125" stop-color="#55b2a1"/><stop offset=".8125" stop-color="#5bfff5"/><stop offset="1" stop-color="#4700ff"/></linearGradient><clipPath id="c"><path d="m0 0h1095v1034h-1095z"/></clipPath><g clip-path="url(#c)"><g filter="url(#a)" opacity=".25"><path d="m184 775 31-591 696 28-154 638z" fill="url(#b)"/></g><g fill="#dcd5e1" opacity=".9"><rect height="12" rx="3" width="12" x="177" y="692"/><rect height="12" rx="3" width="12" x="197" y="692"/><rect height="12" rx="3" width="12" x="217" y="692"/><rect height="12" rx="3" width="12" x="237" y="692"/><rect height="12" rx="3" width="12" x="257" y="692"/><rect height="12" rx="3" width="12" x="277" y="692"/><rect height="12" rx="3" width="12" x="297" y="692"/><rect height="12" rx="3" width="12" x="317" y="692"/><rect height="12" rx="3" width="12" x="337" y="692"/><rect height="12" rx="3" width="12" x="357" y="692"/><rect height="12" rx="3" width="12" x="377" y="692"/><rect height="12" rx="3" width="12" x="397" y="692"/><rect height="12" rx="3" width="12" x="417" y="692"/><rect height="12" rx="3" width="12" x="437" y="692"/><rect height="12" rx="3" width="12" x="457" y="692"/><rect height="12" rx="3" width="12" x="477" y="692"/><rect height="12" rx="3" width="12" x="177" y="712"/><rect height="12" rx="3" width="12" x="197" y="712"/><rect height="12" rx="3" width="12" x="217" y="712"/><rect height="12" rx="3" width="12" x="237" y="712"/><rect height="12" rx="3" width="12" x="257" y="712"/><rect height="12" rx="3" width="12" x="277" y="712"/><rect height="12" rx="3" width="12" x="297" y="712"/><rect height="12" rx="3" width="12" x="317" y="712"/><rect height="12" rx="3" width="12" x="337" y="712"/><rect height="12" rx="3" width="12" x="357" y="712"/><rect height="12" rx="3" width="12" x="377" y="712"/><rect height="12" rx="3" width="12" x="397" y="712"/><rect height="12" rx="3" width="12" x="417" y="712"/><rect height="12" rx="3" width="12" x="437" y="712"/><rect height="12" rx="3" width="12" x="457" y="712"/><rect height="12" rx="3" width="12" x="477" y="712"/><rect height="12" rx="3" width="12" x="177" y="732"/><rect height="12" rx="3" width="12" x="197" y="732"/><rect height="12" rx="3" width="12" x="217" y="732"/><rect height="12" rx="3" width="12" x="237" y="732"/><rect height="12" rx="3" width="12" x="257" y="732"/><rect height="12" rx="3" width="12" x="277" y="732"/><rect height="12" rx="3" width="12" x="297" y="732"/><rect height="12" rx="3" width="12" x="317" y="732"/><rect height="12" rx="3" width="12" x="337" y="732"/><rect height="12" rx="3" width="12" x="357" y="732"/><rect height="12" rx="3" width="12" x="377" y="732"/><rect height="12" rx="3" width="12" x="397" y="732"/><rect height="12" rx="3" width="12" x="417" y="732"/><rect height="12" rx="3" width="12" x="437" y="732"/><rect height="12" rx="3" width="12" x="457" y="732"/><rect height="12" rx="3" width="12" x="477" y="732"/><rect height="12" rx="3" width="12" x="177" y="752"/><rect height="12" rx="3" width="12" x="197" y="752"/><rect height="12" rx="3" width="12" x="217" y="752"/><rect height="12" rx="3" width="12" x="237" y="752"/><rect height="12" rx="3" width="12" x="257" y="752"/><rect height="12" rx="3" width="12" x="277" y="752"/><rect height="12" rx="3" width="12" x="297" y="752"/><rect height="12" rx="3" width="12" x="317" y="752"/><rect height="12" rx="3" width="12" x="337" y="752"/><rect height="12" rx="3" width="12" x="357" y="752"/><rect height="12" rx="3" width="12" x="377" y="752"/><rect height="12" rx="3" width="12" x="397" y="752"/><rect height="12" rx="3" width="12" x="417" y="752"/><rect height="12" rx="3" width="12" x="437" y="752"/><rect height="12" rx="3" width="12" x="457" y="752"/><rect height="12" rx="3" width="12" x="477" y="752"/><rect height="12" rx="3" width="12" x="177" y="772"/><rect height="12" rx="3" width="12" x="197" y="772"/><rect height="12" rx="3" width="12" x="217" y="772"/><rect height="12" rx="3" width="12" x="237" y="772"/><rect height="12" rx="3" width="12" x="257" y="772"/><rect height="12" rx="3" width="12" x="277" y="772"/><rect height="12" rx="3" width="12" x="297" y="772"/><rect height="12" rx="3" width="12" x="317" y="772"/><rect height="12" rx="3" width="12" x="337" y="772"/><rect height="12" rx="3" width="12" x="357" y="772"/><rect height="12" rx="3" width="12" x="377" y="772"/><rect height="12" rx="3" width="12" x="397" y="772"/><rect height="12" rx="3" width="12" x="417" y="772"/><rect height="12" rx="3" width="12" x="437" y="772"/><rect height="12" rx="3" width="12" x="457" y="772"/><rect height="12" rx="3" width="12" x="477" y="772"/><rect height="12" rx="3" width="12" x="177" y="792"/><rect height="12" rx="3" width="12" x="197" y="792"/><rect height="12" rx="3" width="12" x="217" y="792"/><rect height="12" rx="3" width="12" x="237" y="792"/><rect height="12" rx="3" width="12" x="257" y="792"/><rect height="12" rx="3" width="12" x="277" y="792"/><rect height="12" rx="3" width="12" x="297" y="792"/><rect height="12" rx="3" width="12" x="317" y="792"/><rect height="12" rx="3" width="12" x="337" y="792"/><rect height="12" rx="3" width="12" x="357" y="792"/><rect height="12" rx="3" width="12" x="377" y="792"/><rect height="12" rx="3" width="12" x="397" y="792"/><rect height="12" rx="3" width="12" x="417" y="792"/><rect height="12" rx="3" width="12" x="437" y="792"/><rect height="12" rx="3" width="12" x="457" y="792"/><rect height="12" rx="3" width="12" x="477" y="792"/><rect height="12" rx="3" width="12" x="177" y="812"/><rect height="12" rx="3" width="12" x="197" y="812"/><rect height="12" rx="3" width="12" x="217" y="812"/><rect height="12" rx="3" width="12" x="237" y="812"/><rect height="12" rx="3" width="12" x="257" y="812"/><rect height="12" rx="3" width="12" x="277" y="812"/><rect height="12" rx="3" width="12" x="297" y="812"/><rect height="12" rx="3" width="12" x="317" y="812"/><rect height="12" rx="3" width="12" x="337" y="812"/><rect height="12" rx="3" width="12" x="357" y="812"/><rect height="12" rx="3" width="12" x="377" y="812"/></g><path d="m160.796 163.98c-.507.004-1.005-.126-1.446-.376-.994-.572-1.864-1.335-2.561-2.245s-1.207-1.949-1.5-3.057c-.294-1.108-.364-2.264-.208-3.399.155-1.136.535-2.23 1.115-3.218.567-.995 1.325-1.867 2.231-2.567.906-.701 1.941-1.215 3.046-1.513 1.105-.299 2.259-.376 3.394-.226 1.135.149 2.229.521 3.219 1.095.332.19.699.312 1.078.36.38.047.765.019 1.134-.083.368-.102.713-.276 1.014-.513.3-.236.551-.53.738-.864.197-.329.326-.695.381-1.075.054-.38.032-.767-.065-1.139s-.267-.72-.5-1.025c-.233-.306-.525-.562-.858-.753-.656-.386-1.134-1.016-1.329-1.753s-.092-1.521.288-2.181c.382-.662 1.009-1.146 1.746-1.347.738-.2 1.524-.101 2.188.276 2.007 1.151 3.474 3.052 4.079 5.284.605 2.233.298 4.614-.853 6.621-1.151 2.006-3.052 3.473-5.284 4.078-2.233.605-4.614.298-6.621-.852-.331-.196-.698-.324-1.08-.376-.381-.052-.769-.028-1.141.072-.372.099-.72.272-1.024.508s-.558.531-.747.866c-.382.687-.486 1.495-.289 2.256.199.731.677 1.354 1.331 1.736.559.317.997.812 1.245 1.405.247.594.289 1.253.12 1.874-.169.62-.54 1.167-1.055 1.553-.514.386-1.143.589-1.786.578z" fill="#cbb7ff"/><path d="m631.071 84.8701-5.657-5.6569c-.375-.3751-.586-.8838-.586-1.4142s.211-1.0392.586-1.4142c.375-.3751.884-.5858 1.414-.5858.531 0 1.039.2107 1.414.5858l4.243 4.2426 4.243-4.2426c.375-.3751.884-.5858 1.414-.5858s1.039.2107 1.414.5858l4.243 4.2426 4.242-4.2426c.376-.3751.884-.5858 1.415-.5858.53 0 1.039.2107 1.414.5858l4.243 4.2426 4.242-4.2426c.375-.3751.884-.5858 1.414-.5858.531 0 1.04.2107 1.415.5858l5.656 5.6568c.376.3751.586.8838.586 1.4142 0 .5305-.21 1.0392-.586 1.4143-.375.375-.883.5857-1.414.5857-.53 0-1.039-.2107-1.414-.5857l-4.243-4.2427-4.242 4.2427c-.375.375-.884.5857-1.414.5857-.531 0-1.04-.2107-1.415-.5857l-4.242-4.2427-4.243 4.2427c-.375.375-.884.5857-1.414.5857-.531 0-1.039-.2107-1.414-.5857l-4.243-4.2427-4.243 4.2427c-.375.375-.883.5857-1.414.5857-.53 0-1.039-.2107-1.414-.5857z" fill="#dedaf3"/><circle cx="188" cy="300" fill="#fff" opacity=".7" r="7" stroke="#ff228c" stroke-width="4"/><path d="m223.071 455.87-5.657-5.657c-.375-.375-.586-.884-.586-1.414s.211-1.039.586-1.414.884-.586 1.414-.586c.531 0 1.039.211 1.414.586l4.243 4.242 4.243-4.242c.375-.375.884-.586 1.414-.586s1.039.211 1.414.586l4.243 4.242 4.242-4.242c.376-.375.884-.586 1.415-.586.53 0 1.039.211 1.414.586l4.243 4.242 4.242-4.242c.375-.375.884-.586 1.414-.586.531 0 1.04.211 1.415.586l5.656 5.657c.376.375.586.883.586 1.414 0 .53-.21 1.039-.586 1.414-.375.375-.883.586-1.414.586-.53 0-1.039-.211-1.414-.586l-4.243-4.243-4.242 4.243c-.375.375-.884.586-1.414.586-.531 0-1.04-.211-1.415-.586l-4.242-4.243-4.243 4.243c-.375.375-.884.586-1.414.586-.531 0-1.039-.211-1.414-.586l-4.243-4.243-4.243 4.243c-.375.375-.883.586-1.414.586-.53 0-1.039-.211-1.414-.586z" fill="#4dbfff" fill-opacity=".8"/><path d="m768 431h-8c-.53 0-1.039-.211-1.414-.586s-.586-.884-.586-1.414.211-1.039.586-1.414.884-.586 1.414-.586h6v-6c0-.53.211-1.039.586-1.414s.884-.586 1.414-.586h6v-6c0-.53.211-1.039.586-1.414s.884-.586 1.414-.586h6v-6c0-.53.211-1.039.586-1.414s.884-.586 1.414-.586h8c.53 0 1.039.211 1.414.586s.586.884.586 1.414-.211 1.039-.586 1.414-.884.586-1.414.586h-6v6c0 .53-.211 1.039-.586 1.414s-.884.586-1.414.586h-6v6c0 .53-.211 1.039-.586 1.414s-.884.586-1.414.586h-6v6c0 .53-.211 1.039-.586 1.414s-.884.586-1.414.586z" fill="#fff" fill-opacity=".2"/><path d="m193.01 599.443c-.437.257-.934.394-1.441.398-1.146.001-2.282-.224-3.34-.664-1.059-.44-2.02-1.085-2.828-1.898s-1.447-1.778-1.88-2.839c-.433-1.062-.651-2.199-.643-3.345-.006-1.145.215-2.279.649-3.339.434-1.059 1.073-2.022 1.881-2.833s1.768-1.454 2.826-1.892c1.057-.439 2.191-.664 3.336-.662.383-.001.761-.078 1.113-.227.353-.148.673-.365.941-.638s.479-.596.621-.951c.143-.355.213-.735.208-1.118.006-.384-.065-.765-.208-1.121-.143-.357-.356-.681-.626-.954-.269-.274-.591-.491-.945-.639-.355-.147-.735-.223-1.119-.222-.762-.007-1.491-.313-2.028-.854-.538-.54-.84-1.271-.841-2.033-.001-.764.301-1.497.839-2.039s1.269-.85 2.033-.855c2.313-.007 4.534.906 6.174 2.537s2.565 3.847 2.571 6.16c.007 2.313-.906 4.534-2.537 6.174s-3.846 2.565-6.159 2.572c-.385-.004-.767.069-1.124.214-.356.146-.68.361-.952.633s-.487.596-.632.952c-.146.357-.219.739-.215 1.124.013.786.327 1.537.878 2.099.538.532 1.263.833 2.02.837.644-.005 1.27.204 1.781.595.511.39.878.94 1.041 1.562.164.622.116 1.281-.137 1.872-.252.592-.695 1.082-1.257 1.394z" fill="#cbb7ff"/></g></svg>