<svg fill="none" height="22" viewBox="0 0 22 22" width="22" xmlns="http://www.w3.org/2000/svg" xmlns:xlink="http://www.w3.org/1999/xlink"><clipPath id="a"><path d="m0 0h22v22h-22z"/></clipPath><g clip-path="url(#a)"><path d="m21.362 10.9489c0-.3074-.0733-.5959-.1962-.858-.8195-2.64372-4.656-2.4506-10.1132-2.57955-.9124-.02139-.3905-1.09878-.0703-3.46378.2084-1.53816-.7835-3.900109-2.45058-3.900109-2.74878 0-.1045 2.168219-2.53489 7.530109-1.29861 2.86493-4.20139 1.26011-4.20139 4.13783v6.5505c0 1.1202.11 2.197 1.68545 2.3742 1.52716.1717 1.18372 1.2601 3.38677 1.2601h11.02684c1.1233 0 2.0369-.9142 2.0369-2.0375 0-.4656-.1632-.8897-.4266-1.2332.6234-.3489 1.0511-1.0077 1.0511-1.7716 0-.4644-.1625-.8885-.4253-1.2314.6252-.3483 1.0542-1.0077 1.0542-1.7728 0-.5555-.2249-1.0591-.5873-1.4276.4626-.3734.7645-.938.7645-1.5772z" fill="#ffdb5e"/><path d="m14.0678 12.9858h5.258c.715 0 1.386-.3826 1.7514-.998.1503-.2536.0666-.5817-.1876-.7327-.2536-.1509-.5818-.066-.7327.1876-.173.2927-.4926.4736-.8318.4736h-5.3838c-.5335 0-.9674-.4339-.9674-.9674s.4339-.96735.9674-.96735h3.5976c.2951 0 .5347-.23955.5347-.53472s-.2396-.53472-.5347-.53472h-3.5983c-1.1232 0-2.0368.91361-2.0368 2.03679 0 .6264.2903 1.1807.7364 1.5547-.3758.3697-.6099.8831-.6099 1.4502 0 .6282.2921 1.1843.7407 1.5577-.3734.3691-.605.8806-.605 1.4465 0 .6844.3416 1.2882.861 1.6579-.3202.36-.5206.8287-.5206 1.3469 0 1.1233.9136 2.0369 2.0368 2.0369h3.3513c.715 0 1.3866-.382 1.7521-.9974.1509-.2536.0672-.5817-.1864-.7327-.2542-.1497-.5824-.0672-.7327.1864-.1742.2927-.4938.4742-.833.4742h-3.3513c-.5335 0-.9674-.4339-.9674-.9674s.4339-.9674.9674-.9674h3.9759c.715 0 1.3872-.3825 1.752-.9979.151-.2542.0673-.5824-.1863-.7327-.2561-.1534-.583-.0672-.7328.1864-.1766.2976-.4882.4748-.8329.4748h-4.3163c-.5335 0-.9674-.4345-.9674-.968s.4339-.9674.9674-.9674h4.9445c.715 0 1.3866-.3819 1.7521-.9973.1509-.2536.0672-.5818-.1864-.7327-.2549-.1504-.5824-.0673-.7327.1863-.1767.297-.4883.4743-.833.4743h-5.0795c-.5335 0-.9674-.4339-.9674-.9674s.4332-.968.9674-.968z" fill="#ee9547"/></g></svg>