<svg fill="none" height="22" viewBox="0 0 22 22" width="22" xmlns="http://www.w3.org/2000/svg" xmlns:xlink="http://www.w3.org/1999/xlink"><clipPath id="a"><path d="m0 0h22v22h-22z"/></clipPath><g clip-path="url(#a)"><path d="m7.10476 4.57594c-.06844.06844-.12039.15094-.16378.24139l-.00489-.00489-6.8542207 15.44036.0067223.0067c-.1271112.2463.0855554.7474.5212784 1.1837.43572.4357.93683.6484 1.18311.5213l.00611.0061 15.44031-6.8548-.0049-.0055c.0899-.0428.1724-.0948.2414-.1644.9546-.9546-.5934-4.0499-3.4564-6.91352-2.8643-2.86367-5.95957-4.411-6.91474-3.45644z" fill="#dd2e44"/><path d="m7.94442 7.33301-7.690217 12.53139-.1723337.3881.0067222.0067c-.127111.2463.0855555.7474.5212775 1.1837.141778.1418.289056.2494.433281.3404l9.34575-11.3947z" fill="#ea596e"/><path d="m14.0629 7.98468c2.8539 2.85512 4.4385 5.89842 3.5377 6.79802-.9001.9008-3.9435-.6832-6.7992-3.5371-2.8545-2.85514-4.4385-5.89969-3.53833-6.79986.90077-.90017 3.94413.68383 6.79983 3.53894z" fill="#a0041e"/><path d="m11.3605 8.31703c-.1216.09839-.2805.14972-.4485.13139-.5305-.05745-.97657-.242-1.28885-.5335-.33061-.30862-.49378-.72295-.44917-1.13789.07822-.72845.80911-1.397 2.05512-1.26256.4847.05194.701-.10389.7083-.17844.0086-.07395-.1692-.27256-.6539-.32512-.5304-.05744-.9765-.242-1.28941-.5335-.33061-.30861-.49438-.72294-.44916-1.13789.07944-.72844.80977-1.397 2.05457-1.26194.3532.03789.5396-.03483.6184-.08189.063-.0385.088-.07517.0905-.09656.0073-.07394-.1681-.27255-.6539-.32511-.3355-.03666-.5787-.33733-.5415-.673441.0361-.335501.3361-.578112.6729-.541445 1.2448.133833 1.8168.942336 1.738 1.671386-.0795.72967-.8097 1.397-2.0558 1.26317-.3532-.0385-.5378.03483-.6172.08189-.063.03789-.0886.07517-.0911.09594-.0079.07456.1687.27256.6545.32512 1.2449.13444 1.8169.94233 1.738 1.67139-.0788.72844-.8091 1.397-2.0545 1.26194-.3533-.03789-.539.03544-.6185.08189-.0635.03911-.088.07578-.0904.09655-.008.07395.1686.27256.6539.32512.3348.03666.5787.33794.5414.67344-.0171.16745-.102.31228-.2237.41006z" fill="#aa8dd8"/><path d="m18.7372 13.9681c1.2058-.3404 2.0375.1974 2.2355.9033.198.7052-.231 1.598-1.4361 1.9372-.4706.132-.6117.3569-.5928.4284.0208.0721.2597.1906.7291.058 1.2051-.3391 2.0368.1986 2.2348.9039.1992.7058-.231 1.5974-1.4367 1.9372-.47.132-.6118.3575-.591.429.0202.0715.2585.19.7285.058.3239-.091.6624.0978.7535.4223.0904.3251-.0984.6625-.4235.7541-1.2045.3392-2.0369-.1974-2.2361-.9038-.198-.7052.2316-1.5968 1.438-1.9366.4705-.1326.6117-.3569.5909-.429-.0196-.0715-.2579-.1907-.7272-.0587-1.2064.3398-2.0375-.1968-2.2361-.9038-.1986-.7052.231-1.5969 1.4367-1.9372.4694-.1314.6105-.3575.591-.4284-.0208-.0721-.2585-.1907-.7285-.0587-.3251.0917-.6618-.0978-.7535-.4223-.091-.3239.0984-.6612.4235-.7529z" fill="#77b255"/><path d="m14.0561 12.3204c-.1796 0-.3568-.0789-.4778-.2292-.2109-.264-.1675-.6484.0953-.8592.1332-.107 3.311-2.60276 7.802-1.96048.3343.04766.5665.35689.5189.69116-.0477.33372-.3545.56832-.6918.51822-3.9679-.56344-6.8365 1.683-6.8646 1.7056-.1137.0905-.2481.1339-.382.1339z" fill="#aa8dd8"/><path d="m3.51633 9.77735c-.05806 0-.11733-.00856-.176-.02567-.32328-.09717-.50661-.43756-.40944-.76083.69238-2.30573 1.32-5.98523.54877-6.94467-.08616-.10878-.21633-.21572-.51455-.19311-.57322.044-.51884 1.25339-.51822 1.26561.02566.33672-.22734.63005-.56345.65511-.34161.02078-.63005-.22733-.65511-.56406-.06294-.84272.19922-2.46583 1.64511-2.575219.64533-.048889 1.18128.175389 1.55956.645949 1.44894 1.80339-.022 7.03144-.33123 8.06178-.07944.26461-.32266.43511-.58544.43511z" fill="#77b255"/><path d="m15.5834 6.72201c.5062 0 .9166-.41041.9166-.91667s-.4104-.91667-.9166-.91667c-.5063 0-.9167.41041-.9167.91667s.4104.91667.9167.91667z" fill="#5c913b"/><path d="m1.22222 12.2218c.67502 0 1.22222-.5472 1.22222-1.2222s-.5472-1.22226-1.22222-1.22226c-.675013 0-1.22222.54726-1.22222 1.22226s.547207 1.2222 1.22222 1.2222z" fill="#9266cc"/><path d="m19.8611 12.8333c.5063 0 .9167-.4104.9167-.9166 0-.5063-.4104-.9167-.9167-.9167-.5062 0-.9166.4104-.9166.9167 0 .5062.4104.9166.9166.9166z" fill="#5c913b"/><path d="m14.3611 20.1663c.5063 0 .9167-.4104.9167-.9166 0-.5063-.4104-.9167-.9167-.9167-.5062 0-.9166.4104-.9166.9167 0 .5062.4104.9166.9166.9166z" fill="#5c913b"/><g fill="#ffcc4d"><path d="m17.1111 3.6671c.6751 0 1.2223-.54721 1.2223-1.22222 0-.67502-.5472-1.22222-1.2223-1.22222-.675 0-1.2222.5472-1.2222 1.22222 0 .67501.5472 1.22222 1.2222 1.22222z"/><path d="m19.8611 6.11068c.5063 0 .9167-.41041.9167-.91667s-.4104-.91667-.9167-.91667c-.5062 0-.9166.41041-.9166.91667s.4104.91667.9166.91667z"/><path d="m18.0278 8.55599c.5062 0 .9166-.41041.9166-.91667s-.4104-.91666-.9166-.91666c-.5063 0-.9167.4104-.9167.91666s.4104.91667.9167.91667z"/><path d="m4.58335 15.2777c.50627 0 .91667-.4104.91667-.9167s-.4104-.9167-.91667-.9167c-.50626 0-.91666.4104-.91666.9167s.4104.9167.91666.9167z"/></g></g></svg>