<svg fill="none" height="22" viewBox="0 0 22 22" width="22" xmlns="http://www.w3.org/2000/svg" xmlns:xlink="http://www.w3.org/1999/xlink"><clipPath id="a"><path d="m0 0h22v22h-22z"/></clipPath><g clip-path="url(#a)"><path d="m11 22c6.0751 0 11-4.9249 11-11 0-6.07513-4.9249-11-11-11-6.07513 0-11 4.92487-11 11 0 6.0751 4.92487 11 11 11z" fill="#ffcc4d"/><path d="m11 12.8337c-2.21406 0-3.68317-.2579-5.50001-.6112-.41494-.08-1.22222 0-1.22222 1.2223 0 2.4444 2.80806 5.5 6.72223 5.5 3.9135 0 6.7222-3.0556 6.7222-5.5 0-1.2223-.8073-1.3029-1.2222-1.2223-1.8168.3533-3.286.6112-5.5.6112z" fill="#664500"/><path d="m5.5 13.4443s1.83333.6111 5.5.6111c3.6667 0 5.5-.6111 5.5-.6111s-1.2222 2.4445-5.5 2.4445c-4.27778 0-5.5-2.4445-5.5-2.4445z" fill="#fff"/><g fill="#664500"><path d="m7.33332 10.3891c.84377 0 1.52778-.95761 1.52778-2.13888 0-1.18128-.68401-2.13889-1.52778-2.13889s-1.52778.95761-1.52778 2.13889c0 1.18127.68401 2.13888 1.52778 2.13888z"/><path d="m14.6667 10.3891c.8437 0 1.5277-.95761 1.5277-2.13888 0-1.18128-.684-2.13889-1.5277-2.13889-.8438 0-1.5278.95761-1.5278 2.13889 0 1.18127.684 2.13888 1.5278 2.13888z"/></g></g></svg>