<svg fill="none" height="22" viewBox="0 0 22 22" width="22" xmlns="http://www.w3.org/2000/svg"><path d="m21.362 11.0513c0 .3074-.0733.5959-.1961.858-.8195 2.6437-4.6561 2.4506-10.1133 2.5795-.9124.0214-.3905 1.0988-.0703 3.4638.2084 1.5382-.7834 3.9001-2.45055 3.9001-2.74878 0-.1045-2.1682-2.53489-7.5301-1.29861-2.8649-4.20139-1.2601-4.20139-4.1378v-6.54991c0-1.12017.11-2.19695 1.68545-2.37417 1.52716-.17233 1.18372-1.26072 3.38677-1.26072h11.02691c1.1232 0 2.0368.914222 2.0368 2.03744 0 .46567-.1632.88978-.4265 1.23323.6233.34894 1.0511 1.00772 1.0511 1.77161 0 .46444-.1626.88855-.4254 1.23139.6252.34833 1.0542 1.00772 1.0542 1.77283 0 .5555-.2249 1.05906-.5873 1.42756.4626.37339.7645.93804.7645 1.57724z" fill="#ffdb5e"/><path d="m14.0678 9.01487h5.258c.715 0 1.386.38255 1.7514.99793.1503.2536.0666.5818-.1876.7327-.2536.151-.5818.066-.7327-.1876-.173-.2927-.4926-.4736-.8318-.4736h-5.3838c-.5335 0-.9674.4339-.9674.9674s.4339.9674.9674.9674h3.5976c.2951 0 .5347.2395.5347.5347s-.2396.5347-.5347.5347h-3.5983c-1.1232 0-2.0368-.9136-2.0368-2.0368 0-.6264.2903-1.18067.7364-1.55467-.3758-.36972-.6099-.88305-.6099-1.45016 0-.62823.2921-1.18434.7407-1.55773-.3734-.36911-.605-.88061-.605-1.4465 0-.68444.3416-1.28822.861-1.65794-.3202-.35994-.5206-.82867-.5206-1.34689 0-1.123222.9136-2.03683344 2.0368-2.03683344h3.3513c.715 0 1.3866.38194444 1.7521.99733344.1509.25361.0672.58178-.1864.73272-.2542.14972-.5824.06722-.7327-.18639-.1742-.29272-.4938-.47422-.833-.47422h-3.3513c-.5335 0-.9674.43389-.9674.96739s.4339.96739.9674.96739h3.9759c.715 0 1.3872.38256 1.752.99794.151.25423.0673.58239-.1863.73273-.2561.15339-.583.06722-.7328-.18639-.1766-.29761-.4882-.47484-.8329-.47484h-4.3163c-.5335 0-.9674.4345-.9674.968s.4339.96739.9674.96739h4.9445c.715 0 1.3866.38195 1.7521.99734.1509.25361.0672.58177-.1864.73272-.2549.15033-.5824.06722-.7327-.18639-.1767-.297-.4883-.47422-.833-.47422h-5.0795c-.5335 0-.9674.43389-.9674.96739s.4332.968.9674.968z" fill="#ee9547"/></svg>