<svg fill="none" height="22" viewBox="0 0 22 22" width="22" xmlns="http://www.w3.org/2000/svg" xmlns:xlink="http://www.w3.org/1999/xlink"><clipPath id="a"><path d="m0 0h22v22h-22z"/></clipPath><g clip-path="url(#a)"><path d="m22 11c0 6.0751-4.9249 11-11 11-6.07506 0-11-4.9249-11-11 0-6.07506 4.92494-11 11-11 6.0751 0 11 4.92494 11 11z" fill="#ffcc4d"/><path d="m11 13.3526c-1.81255 0-3.01583-.2115-4.50327-.5005-.34039-.0648-1.001 0-1.001 1.001 0 2.0013 2.29961 4.5032 5.50427 4.5032 3.2047 0 5.5043-2.5019 5.5043-4.5032 0-1.001-.6612-1.0664-1.001-1.001-1.4875.289-2.6901.5005-4.5033.5005z" fill="#664500"/><path d="m10.175 2.00528c-.52495-1.485607-2.15356-2.265385-3.63978-1.741663-.902.317778-1.54061 1.045613-1.78933 1.896893-.72784-.50661-1.68117-.67223-2.58195-.35445-1.484997.52434-2.265997 2.15417-1.741052 3.63978.074555.21022.173555.40517.288444.58544 1.192278 2.189 4.637108 3.72778 6.722828 3.74673 1.6115-1.32428 3.32814-4.68417 2.88324-7.13595-.0232-.21266-.0691-.42655-.1424-.63678zm1.65 0c.5249-1.485607 2.1542-2.265385 3.6398-1.741663.902.317778 1.5406 1.045613 1.7899 1.896893.7278-.50661 1.6812-.67223 2.582-.35445 1.485.52434 2.2653 2.15417 1.7416 3.63978-.0751.21022-.1735.40517-.289.58544-1.1923 2.189-4.6371 3.72778-6.7235 3.74673-1.6115-1.32428-3.3275-4.68417-2.8826-7.13595.0226-.21266.0685-.42655.1418-.63678z" fill="#dd2e44"/></g></svg>