<?xml version="1.0" encoding="UTF-8" standalone="no"?>
<svg
   xmlns:dc="http://purl.org/dc/elements/1.1/"
   xmlns:cc="http://creativecommons.org/ns#"
   xmlns:rdf="http://www.w3.org/1999/02/22-rdf-syntax-ns#"
   xmlns:svg="http://www.w3.org/2000/svg"
   xmlns="http://www.w3.org/2000/svg"
   xmlns:sodipodi="http://sodipodi.sourceforge.net/DTD/sodipodi-0.dtd"
   xmlns:inkscape="http://www.inkscape.org/namespaces/inkscape"
   width="740.35291"
   height="156.50876"
   viewBox="0 0 740.35292 156.50876"
   fill="none"
   version="1.1"
   id="svg1436"
   sodipodi:docname="emblem_inquery_white.svg"
   inkscape:version="1.0.2-2 (e86c870879, 2021-01-15)">
  <metadata
     id="metadata1442">
    <rdf:RDF>
      <cc:Work
         rdf:about="">
        <dc:format>image/svg+xml</dc:format>
        <dc:type
           rdf:resource="http://purl.org/dc/dcmitype/StillImage" />
        <dc:title></dc:title>
      </cc:Work>
    </rdf:RDF>
  </metadata>
  <defs
     id="defs1440" />
  <sodipodi:namedview
     pagecolor="#ffffff"
     bordercolor="#666666"
     borderopacity="1"
     objecttolerance="10"
     gridtolerance="10"
     guidetolerance="10"
     inkscape:pageopacity="0"
     inkscape:pageshadow="2"
     inkscape:window-width="1920"
     inkscape:window-height="991"
     id="namedview1438"
     showgrid="false"
     fit-margin-top="0"
     fit-margin-left="0"
     fit-margin-right="0"
     fit-margin-bottom="0"
     inkscape:zoom="1.0771277"
     inkscape:cx="492.72131"
     inkscape:cy="139.54633"
     inkscape:window-x="-9"
     inkscape:window-y="-9"
     inkscape:window-maximized="1"
     inkscape:current-layer="svg1436"
     inkscape:document-rotation="0" />
  <path
     fill-rule="evenodd"
     clip-rule="evenodd"
     d="m 360.17891,154.00276 c 4.177,1.67 9.084,2.506 14.723,2.506 h 16.759 v -13.627 h -19.422 c -3.341,0 -6.056,-0.992 -8.144,-2.976 -1.984,-1.984 -2.976,-4.699 -2.976,-8.144 v -5.82 c 7.166,-0.682 13.535,-2.397 19.108,-5.144 7.414,-3.655 13.522,-8.458 18.325,-14.40999 4.803,-5.95139 8.354,-12.320792 10.651,-19.107892 2.401,-6.7871 3.602,-13.3132 3.602,-19.5782 v -3.4458 c 0,-6.7871 -1.201,-13.6264 -3.602,-20.5179 -2.402,-6.8915 -6.056,-13.1565 -10.964,-18.7951 -4.908,-5.7429 -11.068,-10.33724 -18.482,-13.783 -7.309,-3.44576 -15.976,-5.168645 -26,-5.168645 -10.024,0 -18.742,1.722885 -26.156,5.168645 -7.309,3.44576 -13.418,8.0401 -18.325,13.783 -4.908,5.6386 -8.562,11.9036 -10.964,18.7951 -2.402,6.8915 -3.602,13.7308 -3.602,20.5179 v 3.4458 c 0,6.265 1.148,12.7911 3.445,19.5782 2.402,6.7871 6.004,13.156502 10.807,19.107902 4.804,5.952 10.912,10.755 18.326,14.40999 5.734,2.827 12.313,4.56099 19.734,5.20099 v 3.413 c 0,6.892 1.149,12.322 3.446,16.289 2.297,3.968 5.534,6.73501 9.711,8.302 z m 11.59,-45.57799 c -5.325,2.506 -11.329,3.75899 -18.012,3.75899 -6.682,0 -12.738,-1.25299 -18.168,-3.75899 -5.325,-2.50599 -9.868,-5.89999 -13.627,-10.181092 -3.759,-4.3855 -6.63,-9.2931 -8.614,-14.7228 -1.984,-5.5341 -2.976,-11.3293 -2.976,-17.3855 0,-6.3694 0.992,-12.3212 2.976,-17.8553 1.984,-5.5341 4.855,-10.3895 8.614,-14.5661 3.759,-4.2811 8.302,-7.6225 13.627,-10.0241 5.43,-2.4016 11.486,-3.6023 18.168,-3.6023 6.683,0 12.687,1.2007 18.012,3.6023 5.43,2.4016 10.024,5.743 13.783,10.0241 3.759,4.1766 6.631,9.032 8.615,14.5661 1.984,5.5341 2.976,11.4859 2.976,17.8553 0,6.0562 -0.992,11.8514 -2.976,17.3855 -1.984,5.4297 -4.856,10.3373 -8.615,14.7228 -3.759,4.281102 -8.353,7.675102 -13.783,10.181092 z m 163.387,14.096 c 5.325,2.506 11.642,3.759 18.951,3.759 6.578,0 12.478,-1.097 17.699,-3.289 5.221,-2.193 9.554,-5.378 13,-9.554 3.446,-4.177 5.743,-9.13699 6.891,-14.879892 h -14.096 c -0.835,3.863402 -3.341,7.256902 -7.518,10.180882 -4.072,2.923 -9.398,4.38501 -15.976,4.38501 -6.265,0 -11.433,-1.357 -15.506,-4.072 -4.072,-2.81901 -7.1,-6.57829 -9.084,-11.276992 -1.578,-4.0329 -2.494,-8.4706 -2.747,-13.3132 h 66.337 v -6.7349 c 0,-6.9959 -1.462,-13.5742 -4.386,-19.7348 -2.819,-6.1606 -7.204,-11.1726 -13.156,-15.036 -5.847,-3.9679 -13.313,-5.9518 -22.398,-5.9518 -6.996,0 -13.104,1.253 -18.325,3.759 -5.116,2.4016 -9.345,5.6907 -12.686,9.8674 -3.342,4.0723 -5.848,8.6666 -7.518,13.7831 -1.567,5.1164 -2.35,10.3894 -2.35,15.8191 v 2.8193 c 0,5.3252 0.783,10.5461 2.35,15.6625 1.67,5.116502 4.176,9.763292 7.518,13.939292 3.341,4.073 7.674,7.36199 13,9.868 z m -7.793,-49.337192 c 0.469,-2.8038 1.187,-5.4143 2.154,-7.8313 1.984,-4.6988 4.908,-8.4056 8.771,-11.1204 3.968,-2.7148 8.928,-4.0723 14.879,-4.0723 5.743,0 10.494,1.2008 14.253,3.6024 3.759,2.4016 6.579,5.7952 8.458,10.1807 1.202,2.7385 2.02,5.8188 2.453,9.2409 z m 79.262,50.277202 V 39.822378 h 11.903 v 24.9674 c 1.074,-7.4691 3.528,-13.2334 7.362,-17.2928 4.84,-5.1192 11.795,-7.9568 20.866,-8.5128 1.106,-0.0677 2.242,-0.1016 3.41,-0.1016 h 1.036 l 4.784,13.4698 h -4.163 -4.163 c -8.353,0 -14.775,2.245 -19.264,6.7349 -4.49,4.3855 -6.735,10.7549 -6.735,19.1083 v 45.265202 z m 61.524,32.57799 v -13.47 h 12.06 c 3.55,0 6.526,-0.47 8.927,-1.41 2.506,-0.83501 4.543,-2.297 6.109,-4.38499 1.671,-2.089 3.028,-4.856 4.072,-8.301 l 2.046,-6.892 h -7.684 -1.567 l -29.915,-82.758502 h 15.349 l 24.27,70.228492 h 3.266 l 20.548,-69.228492 h 14.723 l -27.879,92.565492 c -1.671,5.53399 -4.02,10.024 -7.048,13.47 -3.029,3.55 -6.735,6.108 -11.121,7.67501 -4.281,1.66999 -9.293,2.506 -15.036,2.506 z m -211.139,-30.07201 c -9.919,0 -17.542,-3.23699 -22.867,-9.71099 -5.325,-6.47401 -7.988,-15.81939 -7.988,-28.036192 v -48.5539 h 15.036 v 51.5298 c 0,6.5782 1.775,11.746902 5.325,15.506282 3.55,3.654 8.354,5.481 14.41,5.481 6.265,0 11.381,-1.983 15.349,-5.951 3.968,-4.07248 5.952,-9.606582 5.952,-16.602582 v -49.9635 h 15.036 v 83.795082 h -11.904 v -19.30888 c -0.404,1.5509 -0.874,3.02691 -1.409,4.4289 -2.193,5.63899 -5.482,9.97199 -9.868,13 -4.281,2.924 -9.763,4.38598 -16.445,4.38598 z m -249.0158,-2.506 V 39.822278 h 11.9036 v 19.3979 c 0.4045,-1.5317 0.8744,-2.9856 1.4096,-4.3618 2.2972,-5.743 5.7429,-10.0763 10.3373,-12.9999 4.5943,-3.0281 10.3895,-4.5422 17.3854,-4.5422 h 0.6265 c 10.5461,0 18.3252,3.2892 23.3372,9.8674 5.1162,6.5783 7.6742,16.0803 7.6742,28.5059 v 47.771182 h -15.0356 V 72.557078 c 0,-6.4739 -1.8273,-11.6425 -5.4819,-15.506 -3.6546,-3.9678 -8.6666,-5.9517 -15.036,-5.9517 -6.5783,0 -11.9036,2.0361 -15.9758,6.1084 -4.0723,4.0722 -6.1084,9.5019 -6.1084,16.289 V 123.46076 Z M 177.0801,9.1237978 V 123.46076 h 15.34931 V 9.1237978 Z"
     fill="#ffffff"
     id="path1434" />
  <g
     style="fill:none"
     id="g2018"
     transform="scale(0.82692308)">
    <path
       fill-rule="evenodd"
       clip-rule="evenodd"
       d="m 78.8083,0 78.8087,45.5 v 91 L 78.8083,182 0,136.5 v -91 z M 13,53.0056 78.8083,15.0111 108.036,31.8856 c -1.342,2.6047 -3.195,5.1471 -5.746,7.5357 C 94.8294,46.4066 80.37,53.0526 52.066,54.6479 40.806,55.2825 25.5683,56.2558 13,64.5593 Z m 0,28.9872 v 16.6221 c 2.6444,-2.7722 5.6726,-5.3644 9.1303,-7.6463 10.8239,-7.1431 25.2762,-10.858 44.0075,-8.223 32.7056,4.6009 51.2362,0.4938 61.9282,-5.8268 10.295,-6.086 14.357,-14.8427 16.551,-22.7541 v -1.1591 l -25.31,-14.6127 c -1.923,3.5952 -4.549,7.1635 -8.132,10.5179 C 100.549,58.8604 82.5452,65.9507 52.7975,67.6273 37.4979,68.4896 22.4158,70.091 13,81.9928 Z m 121.682,6.1168 c 3.938,-2.3282 7.208,-4.9532 9.935,-7.7367 v 33.6941 c -7.234,4.991 -15.215,6.452 -24.365,5.852 -10.102,-0.662 -21.0637,-3.782 -33.5191,-7.327 -0.6309,-0.179 -1.2656,-0.36 -1.9042,-0.541 -22.7925,-6.477 -40.3752,-1.803 -52.8111,7.588 -5.0839,3.839 -9.2148,8.395 -12.4665,13.138 L 13,128.994 v -6.756 h 0.002 c 3.1252,-7.471 8.2967,-15.145 16.2888,-20.419 7.8751,-5.1972 19.0605,-8.4475 35.0361,-6.2001 34.1301,4.8011 56.0771,0.9314 70.3551,-7.5093 z M 30.8536,139.302 78.8083,166.989 144.617,128.994 v -0.069 c -8.075,3.6 -16.585,4.532 -25.216,3.966 -11.538,-0.756 -23.7628,-4.242 -35.7404,-7.656 L 83.65,125.232 c -0.7927,-0.226 -1.5843,-0.452 -2.3746,-0.676 -19.1062,-5.429 -32.4288,-1.335 -41.4234,5.457 -3.5944,2.715 -6.5839,5.928 -8.9984,9.289 z"
       fill="#2539b2"
       id="path833" />
  </g>
</svg>
